<?xml version="1.0" standalone="yes"?>
<svg xmlns="http://www.w3.org/2000/svg" width="394" height="399">
<path style="fill:#010101; stroke:none;" d="M0 0L0 172L1 172C10.9252 46.4097 157.771 -32.4315 270 15.4275C321.557 37.4136 360.839 76.7958 381.55 129C387.78 144.702 389.164 160.886 393 177L394 177L394 0L0 0z"/>
<path style="fill:#ececec; stroke:none;" d="M252 382L251 379L261 369L251 387C270.654 380.351 278.546 366.818 294 354L293 359L290 358L275 378C379.739 334.393 420.759 208.012 371.247 109C359.454 85.4172 342.307 60.7558 320 46L323 62L322 56C317.964 59.5281 322.68 63.8972 323.606 68.0038C325.882 78.0946 326.004 90.6294 326 101C325.993 119.171 318.746 136.426 315.376 154C310.883 177.431 314.829 217.125 289 230L288 223L287 223L285 227L284 227L266 219C255.893 222.986 256.709 210.438 250 209L253 203C247.042 197.157 253.995 187.726 254 180L229.068 175.682L228 163L217 168L216 167L218 161L219 156L211 170L213 173L216 172L217 175L218 175L219 172L220 172L223 175L223 176L221 177C223.034 181.002 222.547 183.222 219 186L219 187L224 187L224 188L221 189L225 193L221 206L226 211L231 212C231.682 220.634 239.705 240.644 233 247C235.772 251.083 237.517 255.477 243 255L245 261L252 260C254.15 257.925 255.205 257.44 257 260L258 260L264 258L262 265L268 258L264 258L264 248L270 248L274 238L282 236L280 240L291 244L290 249L303 259L301 260L301 261L310 261L309 257L324 267C303.061 267.058 287.405 277.264 269 285.691C253.293 292.884 237.395 296.952 221 302.025C211.939 304.83 190.865 315.407 182.055 309.397C163.449 296.704 204.43 278.897 185.725 266.711C181.786 264.145 171.149 271.549 166 271.91C153.435 272.792 135.315 268.369 133.959 253C133.379 246.42 137.089 240.4 138 234C128.93 232.821 134.476 217.75 132.667 213.111C131.411 209.892 126.459 210.009 124.111 207.75C121.235 204.982 122 200.635 122 197C118.365 197 114.619 197.256 111 196.895C89.7511 194.773 107.921 168.649 106 157C109.497 155.165 111.402 152.288 110.836 148.104C110.278 143.975 105.577 142.322 105.251 137.996C104.545 128.634 110.973 118.766 111 109C104.342 109.025 93.9155 97.5816 94 91L80 81L85 83L86 78L80 77L80 81L79 81L80 71L81 69L93 60L91 49L96 44C105.543 46.7146 116.643 38.027 124 32.9005C139.375 22.1865 150.378 15.4048 169 13L169 9L199 4L199 2C178.233 2 157.99 3.39227 138 10.6111C110.352 20.5951 84.9304 34.3358 63 54.0833C-3.77463 114.211 -17.4442 215.363 24.25 293C56.9437 353.878 126.404 397.411 196 394.028C211.959 393.252 231.826 395.427 246.889 387.75C249.439 386.45 249.778 383.366 252 382z"/>
<path style="fill:#a7a7a7; stroke:none;" d="M186 1L187 2L186 1z"/>
<path style="fill:#525252; stroke:none;" d="M187 1L188 2L187 1z"/>
<path style="fill:#3b3b3b; stroke:none;" d="M188 1L188 2L191 2L188 1M192 1L192 2L203 2L192 1M204 1L205 2L204 1M172 2L173 3L172 2z"/>
<path style="fill:#525252; stroke:none;" d="M173 2L174 3L173 2z"/>
<path style="fill:#a7a7a7; stroke:none;" d="M174 2L174 3L177 3L174 2M169 9L169 13C150.169 14.4986 139.43 21.9157 124 32.2323C116.275 37.3974 105.992 46.0833 96 44L91 49L93 60L80 71L79 81L80 81L80 77L86 78L85 83L80 81C82.7856 86.202 88.2381 89.8851 94 91C93.5829 98.0127 103.826 109.369 111 109C110.918 118.894 105.593 127.404 104.812 136.999C104.099 145.75 116.641 148.565 106 157C106.914 168.047 90.2057 194.918 110 196.895C113.946 197.289 118.037 197 122 197C122 200.296 121.183 204.956 123.477 207.662C125.858 210.471 131.324 210.135 132.444 214.079C133.844 219.008 129.07 232.926 138 234C136.318 239.977 133.117 246.682 133.635 253C134.99 269.544 153.788 272.837 167 271.91C171.891 271.567 181.99 264.854 185.725 267.542C202.888 279.895 163.345 296.473 181.133 309.397C190.037 315.865 211.846 305.263 221 302.344C237.333 297.136 253.225 293.113 269 286.138C287.444 277.983 303.094 267.173 324 267L309 257L310 261L301 261L301 260L303 259L290 249L291 244L280 240L282 236L274 238L270 248L264 248L264 258L268 258L262 265L264 258L258 260L257 260C256.181 256.178 253.396 256.855 252 260L245 261L243 255L233 247C238.104 243.878 235.042 240.869 234.305 235.996C233.107 228.077 232.025 220.066 231 212L226 211C225.828 207.483 224.361 206.716 221 206L225 193L221 189L224 188L224 187L219 187L219 186L223 176L223 175L220 172L219 172L218 175L217 175L216 172L213 173L211 170L219 156L218 161L216 167L217 168L228 163L229.032 176.397L254 180C253.979 187.267 245.766 198.282 253 203L250 209C256.026 212.843 256.458 222.802 266 219L284 227L285 227L287 223L288 223L289 230C301.649 225.802 305.69 210.533 309 199C313.227 184.271 312.561 169.682 315.376 155C319.271 134.685 326.034 116.01 326 95C325.986 86.416 325.121 76.4749 323.786 68.0038C323.063 63.4128 318.875 60.3152 322 56L323 62L320 46L346 70C336.414 56.3921 316.677 36.9981 300 33L299 37L303 37L300 40L301 43L297 45L297 47L311 55L308 41L318 63L315 62L318 77L320 78L321 76L322 76L320 90L319 90L318 78L317 78L313.545 121L316 139L315 139L313 125L309 126C309.159 145.178 315.135 165.781 310.447 185C309.323 189.606 301.951 203.66 305 207L296 220L299 219L290 229L293 218C285.103 218.317 277.713 215.572 270 216.055C267.264 216.226 263.088 218.428 260.738 216.343C250.538 207.295 264.529 189.419 266.481 180C267.609 174.561 266.004 168.551 266 163L262 164L268 143L252 162L252 161C256.457 158.184 259.776 149.092 261 144L257 151L232 165L233 158L227 159C230.948 143.562 218.231 149.713 210 152C206.041 160.861 193.24 168.804 184 171L194 159L174 166L175 152L168 148L168 146C175.004 145.298 180.908 142.458 182 135C173.089 135.754 165.354 133.684 157 130.079C151.737 127.807 147.243 122.546 141 123.493C132.255 124.82 115.049 137.919 132 141L131 146L109 139L110 144L106 137L109 138C109.188 121.153 132.668 115.351 146 121C143.007 109.811 135.331 107.1 128.845 99.061C126.564 96.2338 125.528 89.5343 120.3 91.2377C113.868 93.3336 115.14 104.853 108.897 105.789C103.513 106.596 96.8406 94.3645 97 90L89 87L92 86L86 67L95 61L93 57L97 59C92.2725 46.2767 106.751 44.554 117 39.8125C128.481 34.5011 137.444 23.9348 149 18.4028C155.462 15.3092 164.889 14.5808 172 14C176.637 5.98245 198.294 6.28458 207 3L192.996 4.9429L169 9z"/>
<path style="fill:#525252; stroke:none;" d="M172 14C164.69 14.3187 154.629 15.2292 148 18.4028C136.437 23.9382 127.504 34.4919 116 39.8125C106.202 44.3439 90.2762 46.5717 97 59L93 57L95 61L86 67L89 87L97 90C96.0755 95.0046 99.092 97.2653 102 101L103 101L92 75L89 74L88 67L99 60L97 54L100 51C104.398 50.8247 108.135 48.4193 109 44L119 42L120 42L121 42C123.951 45.3775 130.4 44.4152 133 41L122 41C125.63 34.3353 139.914 37.2657 147 35L147 30L167 31L167 30L163 30L163 29L171 28L164 25L164 20L186 10.7855L196.91 11.4962L221 6.31326L237 12L237 13L228 15C230.287 20.9601 235.643 19.0437 241 19C243.441 28.3618 254.875 35.4237 264 37L259 31L264 31L264 30L257 26L257 24C264.583 22.0842 270.103 16.3016 277 23L280 22L280 20C252.092 10.9007 226.476 -0.402344 197 5.55093C190.685 6.82645 174.256 7.51666 172 14z"/>
<path style="fill:#3b3b3b; stroke:none;" d="M215 2L215 3L219 3L215 2M163.667 3.33334L164.333 3.66666L163.667 3.33334z"/>
<path style="fill:#525252; stroke:none;" d="M165.667 3.33334L166.333 3.66666L165.667 3.33334z"/>
<path style="fill:#a7a7a7; stroke:none;" d="M167.667 3.33334L168.333 3.66666L167.667 3.33334z"/>
<path style="fill:#3b3b3b; stroke:none;" d="M222 3L222 4L242 7L222 3M159 4L160 5L159 4z"/>
<path style="fill:#525252; stroke:none;" d="M160 4L161 5L160 4z"/>
<path style="fill:#a7a7a7; stroke:none;" d="M161.667 4.33334L162.333 4.66666L161.667 4.33334z"/>
<path style="fill:#525252; stroke:none;" d="M154 5L155 6L154 5z"/>
<path style="fill:#a7a7a7; stroke:none;" d="M155.667 5.33334L156.333 5.66666L155.667 5.33334z"/>
<path style="fill:#3b3b3b; stroke:none;" d="M164 20L164 25L171 28L163 29L163 30L167 30L167 31L147 30L147 35C140.619 36.4628 124.112 34.5783 122 41L133 41C129.446 44.0909 124.871 44.9287 121 42L120 42L119 42L109 44C107.817 47.8122 103.926 50.5556 100 51L97 54L99 60L88 67L89 74L92 75C90.3389 84.1162 101.712 103.953 111 105C113.599 93.6692 120.748 84.6286 115 73L118 72L114 66L121 62L121 66L140.41 70.1752L149 75L151 83L144 82C145.285 86.1067 147.901 87.2548 152 88L155 92L155 93L154 98L135 93L135 92L140 92L129 83L129 82L132 79L138 80L138 83C141.921 82.6909 143.476 81.6399 145 78L133 75L134 72L122 70L121 74L125 80L123 86C135.248 92.0781 142.215 100.959 157 101C150.582 105.616 145.179 102.328 138 102L140 109L147 115L149 111L157 114L157 118C171.296 110.136 184.086 120.756 176 135C184.581 132.64 182.687 139.754 178 144L177 147L177 148L183 147L175 164L196 157L186 170C199.883 164.622 200.578 148.304 212 142L211 146L216 144L216 146L225 142L226 147C229.774 148.908 230.68 150.838 230 155L236 151L235 162L246 155L246 154L244 152C247.814 151.339 248.57 149.741 249 146L246 147L255 121L251 126L250 126L251 122L246 124L257 107L258 114L260 114L258 97L266 90L263 93L265 119L271 110L271 109L269 106C275.799 104.819 276.705 93.234 274 88L283 93L277 86L278 82L285 87C289.454 70.1713 288.183 55.8345 285 39L291 42L291 27L297 29L297 28L280 20L277 23C271.639 15.3525 263.49 21.5925 257 24L257 26L264 30L264 31L259 31L264 37C254.801 34.4637 244.82 27.9972 241 19C235.668 19.0112 231.04 20.0862 228 15L237 13L221 5.77313L196.91 11.1327L179.174 12.1852L164 20M150 6L151 7L150 6z"/>
<path style="fill:#525252; stroke:none;" d="M151 6L152 7L151 6z"/>
<path style="fill:#a7a7a7; stroke:none;" d="M152 6L153 7L152 6z"/>
<path style="fill:#3b3b3b; stroke:none;" d="M145 7L146 8L145 7z"/>
<path style="fill:#525252; stroke:none;" d="M146 7L147 8L146 7z"/>
<path style="fill:#a7a7a7; stroke:none;" d="M147 7L147 8L152 8L147 7z"/>
<path style="fill:#3b3b3b; stroke:none;" d="M244.667 7.33334L245.333 7.66666L244.667 7.33334M142 8L143 9L142 8z"/>
<path style="fill:#525252; stroke:none;" d="M143 8L144 9L143 8z"/>
<path style="fill:#a7a7a7; stroke:none;" d="M144.667 8.33334L145.333 8.66666L144.667 8.33334z"/>
<path style="fill:#3b3b3b; stroke:none;" d="M248.667 8.33334L249.333 8.66666L248.667 8.33334M137.667 9.33334L138.333 9.66666L137.667 9.33334z"/>
<path style="fill:#525252; stroke:none;" d="M139 9L140 10L139 9z"/>
<path style="fill:#a7a7a7; stroke:none;" d="M140 9L140 10L143 10L140 9z"/>
<path style="fill:#3b3b3b; stroke:none;" d="M253 9L254 10L253 9M135 10L136 11L135 10z"/>
<path style="fill:#525252; stroke:none;" d="M136 10L137 11L136 10z"/>
<path style="fill:#a7a7a7; stroke:none;" d="M137 10L138 11L137 10z"/>
<path style="fill:#3b3b3b; stroke:none;" d="M256 10L257 11L256 10z"/>
<path style="fill:#525252; stroke:none;" d="M133.667 11.3333L134.333 11.6667L133.667 11.3333z"/>
<path style="fill:#a7a7a7; stroke:none;" d="M135.667 11.3333L136.333 11.6667L135.667 11.3333M254 11L255 12L254 11z"/>
<path style="fill:#3b3b3b; stroke:none;" d="M258.667 11.3333L259.333 11.6667L258.667 11.3333z"/>
<path style="fill:#525252; stroke:none;" d="M130.667 12.3333L131.333 12.6667L130.667 12.3333z"/>
<path style="fill:#a7a7a7; stroke:none;" d="M132.667 12.3333L133.333 12.6667L132.667 12.3333M256 12L256 13L261 14L261 13L256 12z"/>
<path style="fill:#3b3b3b; stroke:none;" d="M261.667 12.3333L262.333 12.6667L261.667 12.3333M126 13L127 14L126 13z"/>
<path style="fill:#525252; stroke:none;" d="M127.667 13.3333L128.333 13.6667L127.667 13.3333z"/>
<path style="fill:#a7a7a7; stroke:none;" d="M129 13L129 14L132 14L129 13z"/>
<path style="fill:#3b3b3b; stroke:none;" d="M264.667 13.3333L265.333 13.6667L264.667 13.3333M124 14L125 15L124 14z"/>
<path style="fill:#525252; stroke:none;" d="M125 14L126 15L125 14z"/>
<path style="fill:#a7a7a7; stroke:none;" d="M126 14L126 15L129 15L126 14z"/>
<path style="fill:#525252; stroke:none;" d="M204 14L204 16L207 16L207 14L204 14z"/>
<path style="fill:#3b3b3b; stroke:none;" d="M267 14L268 15L267 14M122 15L123 16L122 15z"/>
<path style="fill:#a7a7a7; stroke:none;" d="M96 29L96 30L126 16C117.907 13.7807 102.791 24.8435 96 29z"/>
<path style="fill:#3b3b3b; stroke:none;" d="M269 15L269 16L275 18L275 17L269 15M119 16L120 17L119 16z"/>
<path style="fill:#525252; stroke:none;" d="M120 16L121 17L120 16z"/>
<path style="fill:#a7a7a7; stroke:none;" d="M268 16L269 17L268 16z"/>
<path style="fill:#3b3b3b; stroke:none;" d="M117 17L118 18L117 17z"/>
<path style="fill:#525252; stroke:none;" d="M118 17L119 18L118 17z"/>
<path style="fill:#a7a7a7; stroke:none;" d="M244 17L244 18L253 20L244 17z"/>
<path style="fill:#3b3b3b; stroke:none;" d="M115 18L116 19L115 18z"/>
<path style="fill:#525252; stroke:none;" d="M116 18L117 19L116 18z"/>
<path style="fill:#3b3b3b; stroke:none;" d="M152 20L153 23L147 22C151.758 27.6554 157.953 22.3002 163 20L152 20z"/>
<path style="fill:#525252; stroke:none;" d="M183 18L184 19L183 18z"/>
<path style="fill:#3b3b3b; stroke:none;" d="M264.667 18.3333L265.333 18.6667L264.667 18.3333M275.667 18.3333L276.333 18.6667L275.667 18.3333z"/>
<path style="fill:#525252; stroke:none;" d="M113 19L114 20L113 19M190 20L190 21L195 22L194 19L190 20z"/>
<path style="fill:#3b3b3b; stroke:none;" d="M278.667 19.3333L279.333 19.6667L278.667 19.3333z"/>
<path style="fill:#525252; stroke:none;" d="M111 20L112 21L111 20z"/>
<path style="fill:#3b3b3b; stroke:none;" d="M108 21L109 22L108 21z"/>
<path style="fill:#525252; stroke:none;" d="M109 21L110 22L109 21M195 25C198.47 24.7518 200.961 24.5513 202 21C198.286 21.1227 196.437 21.4238 195 25M107 22L108 23L107 22M200 28C204.606 28.0315 207.873 26.0944 210 22L200 28M281 22L283 32C287.462 27.3942 288.416 23.7845 281 22z"/>
<path style="fill:#3b3b3b; stroke:none;" d="M104 23L105 24L104 23z"/>
<path style="fill:#525252; stroke:none;" d="M105 23L106 24L105 23z"/>
<path style="fill:#3b3b3b; stroke:none;" d="M102 24L103 25L102 24z"/>
<path style="fill:#525252; stroke:none;" d="M103 24L104 25L103 24M236 24L242 27L236 24M273 24L273 27L276 26L276 25L273 24M101 25L102 26L101 25z"/>
<path style="fill:#3b3b3b; stroke:none;" d="M141 26L141 27L145 26L141 26M251.667 25.3333L252.333 25.6667L251.667 25.3333M99 26L100 27L99 26z"/>
<path style="fill:#525252; stroke:none;" d="M100 26L101 27L100 26z"/>
<path style="fill:#3b3b3b; stroke:none;" d="M97 27L98 28L97 27z"/>
<path style="fill:#525252; stroke:none;" d="M98 27L99 28L98 27z"/>
<path style="fill:#a7a7a7; stroke:none;" d="M252 27L252 28L256 29L256 28L252 27z"/>
<path style="fill:#525252; stroke:none;" d="M291 27L291 42L285 39C287.223 56.4868 287.968 69.4717 285 87L278 82L277 86L283 93L274 88C276.098 93.637 275.606 103.914 269 106L271 109L271 110L265 119L263 93L266 90L258 97L260 114L258 114L257 107C252.262 109.812 247.12 118.609 246 124L251 122L250 126L251 126L255 121C251.443 128.957 244.194 137.788 246 147L249 146L244 152L246 154L246 155L235 162L236 151L230 155C231.123 150.746 230.343 148.319 226 147L225 142L216 146L216 144L211 146L212 142C204.876 144.386 198.533 158.864 194 165C201.501 163.278 207.836 159.922 210 152C218.537 150.688 229.257 143.461 227 159L233 158L232 165L257 151L261 144L252 161L252 162C259.168 159.794 263.316 148.64 268 143L262 164L266 163C266.001 168.156 267.411 173.971 266.468 179C264.787 187.96 249.505 208.749 260.738 216.954C263.397 218.896 268.042 216.185 271 216.069C278.485 215.778 285.243 218.607 293 218L290 229L299 219L296 220L305 207L310.906 183L312.495 149.985L309 126L313 125L315 139L316 139L313.835 120L317 78L318 78L319 90L320 90L322 76L321 76L320 78L318 77L315 62L318 63L308 41L311 55L297 47L297 45L301 43L300 40L303 37L299 37L300 33L305 34L305 33L291 27z"/>
<path style="fill:#3b3b3b; stroke:none;" d="M95 28L96 29L95 28z"/>
<path style="fill:#525252; stroke:none;" d="M96 28L97 29L96 28z"/>
<path style="fill:#3b3b3b; stroke:none;" d="M93 29L94 30L93 29z"/>
<path style="fill:#525252; stroke:none;" d="M91 31L91 32L96 30L91 31M198 29L195 31C197.143 31.2646 198.419 31.3841 198 29z"/>
<path style="fill:#3b3b3b; stroke:none;" d="M298 29L299 30L298 29z"/>
<path style="fill:#a7a7a7; stroke:none;" d="M94 30L95 31L94 30z"/>
<path style="fill:#525252; stroke:none;" d="M204 30L204 31L207 31L204 30M220 34L223 33C225.994 37.8327 229.507 36.0936 234 34L234 33L228 34L229 31C224.914 30.2493 222.762 30.8799 220 34z"/>
<path style="fill:#a7a7a7; stroke:none;" d="M296.667 30.3333L297.333 30.6667L296.667 30.3333z"/>
<path style="fill:#3b3b3b; stroke:none;" d="M299 30L302 32L302 31L299 30M90 31L91 32L90 31z"/>
<path style="fill:#a7a7a7; stroke:none;" d="M92.6667 31.3333L93.3333 31.6667L92.6667 31.3333z"/>
<path style="fill:#525252; stroke:none;" d="M89 32L90 33L89 32z"/>
<path style="fill:#a7a7a7; stroke:none;" d="M90.6667 32.3333L91.3333 32.6667L90.6667 32.3333z"/>
<path style="fill:#3b3b3b; stroke:none;" d="M303 32L304 33L303 32M87 33L88 34L87 33z"/>
<path style="fill:#a7a7a7; stroke:none;" d="M88.6667 33.3333L89.3333 33.6667L88.6667 33.3333z"/>
<path style="fill:#525252; stroke:none;" d="M203 34L203 36L210 40L209 37L212 36L212 34L203 34M86 34L87 35L86 34z"/>
<path style="fill:#a7a7a7; stroke:none;" d="M87 34L88 35L87 34z"/>
<path style="fill:#525252; stroke:none;" d="M150 34L148 40L155 41L155 35L150 34M305.667 34.3333L306.333 34.6667L305.667 34.3333z"/>
<path style="fill:#3b3b3b; stroke:none;" d="M84 35L85 36L84 35z"/>
<path style="fill:#a7a7a7; stroke:none;" d="M63 54L87 36C79.6328 35.6271 67.2598 48.43 63 54z"/>
<path style="fill:#525252; stroke:none;" d="M174 35L169 37C170.19 40.7712 172.172 41.5694 176 42L174 35M284.333 35.6667L284.667 36.3333L284.333 35.6667M307 35L309 37L307 35z"/>
<path style="fill:#3b3b3b; stroke:none;" d="M308 35L309 36L308 35z"/>
<path style="fill:#525252; stroke:none;" d="M83 36L84 37L83 36M223 43C229.103 43.5282 234.353 40.8333 238 36C232.17 36.8578 226.755 38.2601 223 43z"/>
<path style="fill:#3b3b3b; stroke:none;" d="M309 36L310 37L309 36z"/>
<path style="fill:#525252; stroke:none;" d="M82 37L83 38L82 37M310 37L311 38L310 37z"/>
<path style="fill:#3b3b3b; stroke:none;" d="M80 38L81 39L80 38z"/>
<path style="fill:#525252; stroke:none;" d="M311 38L318 43L318 42L311 38z"/>
<path style="fill:#3b3b3b; stroke:none;" d="M312 38L313 39L312 38z"/>
<path style="fill:#525252; stroke:none;" d="M79 39L80 40L79 39z"/>
<path style="fill:#3b3b3b; stroke:none;" d="M313 39L314 40L313 39M77 40L78 41L77 40z"/>
<path style="fill:#525252; stroke:none;" d="M78 40L79 41L78 40M142 40L145 45L145 46L142 46L163 53C160.369 48.8089 153.751 46.847 149 46L152 42L142 40z"/>
<path style="fill:#3b3b3b; stroke:none;" d="M315 40L316 41L315 40M76 41L77 42L76 41M316 41L317 42L316 41z"/>
<path style="fill:#525252; stroke:none;" d="M75 42L76 43L75 42M302 42L305 45L302 42M74 43L75 44L74 43M173 45L187 50C184.925 42.9508 179.075 42.9483 173 45z"/>
<path style="fill:#ececec; stroke:none;" d="M311 43L315 51L316 51C315.692 46.9113 314.7 44.8651 311 43z"/>
<path style="fill:#525252; stroke:none;" d="M318 43L320 45L318 43z"/>
<path style="fill:#3b3b3b; stroke:none;" d="M319 43L320 44L319 43M72 44L73 45L72 44M71 45L72 46L71 45z"/>
<path style="fill:#525252; stroke:none;" d="M321 45L322 46L321 45M70 46L71 47L70 46M207 48L213 46L207 48z"/>
<path style="fill:#3b3b3b; stroke:none;" d="M293 46L291 59C294.719 56.3725 295.397 49.7135 293 46z"/>
<path style="fill:#525252; stroke:none;" d="M322 46L323 47L322 46M69 47L70 48L69 47M302 47L303 48L302 47M323 47L324 48L323 47M68 48L69 49L68 48M212 52L216 48L212 52M324 48L325 49L324 48z"/>
<path style="fill:#3b3b3b; stroke:none;" d="M66 49L67 50L66 49z"/>
<path style="fill:#525252; stroke:none;" d="M67 49L68 50L67 49z"/>
<path style="fill:#3b3b3b; stroke:none;" d="M326 49L327 50L326 49M65 50L66 51L65 50M327 50L328 51L327 50M64 51L65 52L64 51z"/>
<path style="fill:#525252; stroke:none;" d="M118 51C118.677 56.5921 120.136 58.8076 126 59C125.23 54.1544 122.455 52.5399 118 51z"/>
<path style="fill:#ececec; stroke:none;" d="M320 51L320 54L321 54L320 51z"/>
<path style="fill:#525252; stroke:none;" d="M328 51L329 52L328 51M63 52L64 53L63 52M138 56L145 53C141.738 52.0454 139.726 53.1758 138 56M186 52L187 53L186 52M218 52L214 56L218 52M329 52L330 53L329 52z"/>
<path style="fill:#3b3b3b; stroke:none;" d="M62 53L48 68L62 53z"/>
<path style="fill:#a7a7a7; stroke:none;" d="M312 53L316 59L312 53z"/>
<path style="fill:#3b3b3b; stroke:none;" d="M330 53L331 54L330 53z"/>
<path style="fill:#525252; stroke:none;" d="M62 54L63 55L62 54M158 54L156 57C159.662 59.5276 162.428 60.0556 165 56L158 54z"/>
<path style="fill:#3b3b3b; stroke:none;" d="M331 54L332 55L331 54z"/>
<path style="fill:#525252; stroke:none;" d="M61 55L62 56L61 55M144 57L147 55L144 57M190 55L191 56L190 55z"/>
<path style="fill:#3b3b3b; stroke:none;" d="M332 55L333 56L332 55z"/>
<path style="fill:#a7a7a7; stroke:none;" d="M60 56L61 57L60 56z"/>
<path style="fill:#3b3b3b; stroke:none;" d="M333 56L334 57L333 56z"/>
<path style="fill:#a7a7a7; stroke:none;" d="M59 57L60 58L59 57z"/>
<path style="fill:#525252; stroke:none;" d="M185.667 57.3333L186.333 57.6667L185.667 57.3333M209 70L221 58C215.228 58.278 210.746 64.8631 209 70z"/>
<path style="fill:#3b3b3b; stroke:none;" d="M309 57L310 58L309 57M334 57L335 58L334 57z"/>
<path style="fill:#a7a7a7; stroke:none;" d="M58 58L59 59L58 58z"/>
<path style="fill:#525252; stroke:none;" d="M188 58L188 59L191 60L188 58M335 58L336 59L335 58z"/>
<path style="fill:#a7a7a7; stroke:none;" d="M57 59L58 60L57 59z"/>
<path style="fill:#3b3b3b; stroke:none;" d="M336 59L337 60L336 59z"/>
<path style="fill:#a7a7a7; stroke:none;" d="M56 60L57 61L56 60z"/>
<path style="fill:#525252; stroke:none;" d="M151 60C153.278 64.7889 155.992 64.9823 161 65L151 60z"/>
<path style="fill:#3b3b3b; stroke:none;" d="M337 60L338 61L337 60z"/>
<path style="fill:#a7a7a7; stroke:none;" d="M55 61L56 62L55 61z"/>
<path style="fill:#525252; stroke:none;" d="M177.667 61.3333L178.333 61.6667L177.667 61.3333z"/>
<path style="fill:#3b3b3b; stroke:none;" d="M297 61L297 69L298 69L297 61M338 61L339 62L338 61z"/>
<path style="fill:#a7a7a7; stroke:none;" d="M54 62L55 63L54 62z"/>
<path style="fill:#525252; stroke:none;" d="M119 62L114 66L118 72L115 73C119.185 85.5417 112.771 92.9664 111 105L103 102C110.582 116.988 114.741 90.3987 122.074 91.7307C126.029 92.4492 126.483 97.0308 128.664 99.5818C135.273 107.311 142.107 110.578 146 121C132.601 113.85 109.056 121.633 109 138L106 137L110 144L109 139L131 146L132 141C116.468 136.37 132.343 124.956 141.285 123.833C146.942 123.122 151.281 127.91 156 130.154C164.264 134.083 173.083 136.285 182 135L179 143C184.707 139.398 183.36 132.265 176 135C186.842 122.163 170.053 108.611 157 118L157 114L149 111L147 115L140 109L138 102C144.561 102.572 151.686 106.427 157 101C142.283 100.878 135.659 90.5981 123 86L125 84L125 80L121 74L122 70L134 72L133 75L145 78L138 83L138 80L132 79L129 82L129 83L140 92L135 92L135 93L154 98L155 93L155 92L152 88L144 82L151 83L149 75L121 66L121 62L119 62M233 62L224 71C228.928 70.6107 232.832 67.1405 233 62M234 73L240 70L244 70L244 62C239.433 64.1713 235.451 68.0935 234 73z"/>
<path style="fill:#3b3b3b; stroke:none;" d="M339 62L340 63L339 62z"/>
<path style="fill:#525252; stroke:none;" d="M53 63L51 66L53 63M258 63L249 78L254 77L252 84L265 73L266 73L263 80C267.305 76.4497 268.526 71.4341 269 66L254 77L260 63L258 63z"/>
<path style="fill:#3b3b3b; stroke:none;" d="M340 63L341 64L340 63z"/>
<path style="fill:#a7a7a7; stroke:none;" d="M53 64L54 65L53 64z"/>
<path style="fill:#3b3b3b; stroke:none;" d="M341 64L342 65L341 64z"/>
<path style="fill:#a7a7a7; stroke:none;" d="M52 65L53 66L52 65z"/>
<path style="fill:#3b3b3b; stroke:none;" d="M342 65L343 66L342 65z"/>
<path style="fill:#a7a7a7; stroke:none;" d="M49 68L52 66L49 68z"/>
<path style="fill:#525252; stroke:none;" d="M343 66L344 67L343 66M222 67L221 70L222 67z"/>
<path style="fill:#3b3b3b; stroke:none;" d="M344 67L345 68L344 67z"/>
<path style="fill:#a7a7a7; stroke:none;" d="M48 68C35.9138 85.3617 20.7356 102.03 15 123L16 123L36.8596 85L48 68z"/>
<path style="fill:#525252; stroke:none;" d="M231 75C238.78 79.6606 246.747 74.964 251 68L231 75z"/>
<path style="fill:#3b3b3b; stroke:none;" d="M345 68L346 69L345 68M46 69L47 70L46 69z"/>
<path style="fill:#525252; stroke:none;" d="M47 69L48 70L47 69M46 70L47 71L46 70z"/>
<path style="fill:#ececec; stroke:none;" d="M84 72L87 70L84 72z"/>
<path style="fill:#a7a7a7; stroke:none;" d="M346 70L354 80L346 70z"/>
<path style="fill:#525252; stroke:none;" d="M45 71L46 72L45 71M347 71L348 72L347 71M44 72L45 73L44 72z"/>
<path style="fill:#a7a7a7; stroke:none;" d="M291 72L288 97L289 97C291.337 89.6286 296.439 78.6451 291 72z"/>
<path style="fill:#525252; stroke:none;" d="M348 72L349 73L348 72M43 73L44 74L43 73M349 73L350 74L349 73z"/>
<path style="fill:#3b3b3b; stroke:none;" d="M42 74L43 75L42 74z"/>
<path style="fill:#525252; stroke:none;" d="M83 74L85 76L85 74L83 74M218 80L228 75C223.871 73.8709 220.122 76.5311 218 80z"/>
<path style="fill:#a7a7a7; stroke:none;" d="M295 74L297 77L295 74z"/>
<path style="fill:#3b3b3b; stroke:none;" d="M350 74L351 75L350 74M351 75L352 76L351 75z"/>
<path style="fill:#525252; stroke:none;" d="M41 76L42 77L41 76M40 77L41 78L40 77M131.333 77.6667L131.667 78.3333L131.333 77.6667M352 77L353 78L352 77z"/>
<path style="fill:#3b3b3b; stroke:none;" d="M39 78L40 79L39 78z"/>
<path style="fill:#a7a7a7; stroke:none;" d="M306 78L306 82L307 82L306 78z"/>
<path style="fill:#525252; stroke:none;" d="M353 78L354 79L353 78z"/>
<path style="fill:#3b3b3b; stroke:none;" d="M38 79L39 80L38 79z"/>
<path style="fill:#525252; stroke:none;" d="M38 80L39 81L38 80z"/>
<path style="fill:#a7a7a7; stroke:none;" d="M354 80L357 84L354 80z"/>
<path style="fill:#525252; stroke:none;" d="M37 81L38 82L37 81M247 81L248 82L247 81M355 81L356 82L355 81z"/>
<path style="fill:#3b3b3b; stroke:none;" d="M36 82L37 83L36 82M356 82L357 83L356 82z"/>
<path style="fill:#a7a7a7; stroke:none;" d="M309 83L310 90L311 90L309 83z"/>
<path style="fill:#525252; stroke:none;" d="M35 84L36 85L35 84M206 89L208 93L218 85L214 86L206 89M227 84L228 85L227 84M227 90L232 84L227 90z"/>
<path style="fill:#a7a7a7; stroke:none;" d="M305.333 84.6667L305.667 85.3333L305.333 84.6667M357 84L362 93L363 93L357 84z"/>
<path style="fill:#525252; stroke:none;" d="M34 85L35 86L34 85M241 85L239 88L241 85M259 85L254 98L261 85L259 85z"/>
<path style="fill:#3b3b3b; stroke:none;" d="M295 85L296 86L295 85z"/>
<path style="fill:#525252; stroke:none;" d="M358 85L359 86L358 85z"/>
<path style="fill:#3b3b3b; stroke:none;" d="M33 86L34 87L33 86z"/>
<path style="fill:#525252; stroke:none;" d="M87.6667 86.3333L88.3333 86.6667L87.6667 86.3333z"/>
<path style="fill:#3b3b3b; stroke:none;" d="M213 86L214 87L213 86M359 86L360 87L359 86z"/>
<path style="fill:#525252; stroke:none;" d="M33 87L34 88L33 87M32 88L33 89L32 88M360 88L361 89L360 88z"/>
<path style="fill:#3b3b3b; stroke:none;" d="M361 89L362 90L361 89z"/>
<path style="fill:#525252; stroke:none;" d="M31 90L32 91L31 90M243 90L239 96L243 90M246 90L245 92L247 92L246 90z"/>
<path style="fill:#3b3b3b; stroke:none;" d="M30 91L31 92L30 91M296.333 91.6667L296.667 92.3333L296.333 91.6667M362 91L363 92L362 91z"/>
<path style="fill:#525252; stroke:none;" d="M29 93L30 94L29 93M234 93L234 95L236 95L236 93L234 93z"/>
<path style="fill:#a7a7a7; stroke:none;" d="M363.333 93.6667L363.667 94.3333L363.333 93.6667z"/>
<path style="fill:#525252; stroke:none;" d="M28.3333 94.6667L28.6667 95.3333L28.3333 94.6667z"/>
<path style="fill:#3b3b3b; stroke:none;" d="M364 94L366 96L364 94z"/>
<path style="fill:#525252; stroke:none;" d="M269.333 95.6667L269.667 96.3333L269.333 95.6667M364 95L366 97L364 95M27 96L28 97L27 96M321 96L320 104C322.966 101.739 323.146 98.9482 321 96z"/>
<path style="fill:#a7a7a7; stroke:none;" d="M364 96L365 97L364 96z"/>
<path style="fill:#3b3b3b; stroke:none;" d="M26 97L27 98L26 97z"/>
<path style="fill:#a7a7a7; stroke:none;" d="M309 97L307 110L308 110L309 97M365 97L376 120L377 120L365 97z"/>
<path style="fill:#3b3b3b; stroke:none;" d="M366 97L367 98L366 97z"/>
<path style="fill:#525252; stroke:none;" d="M26 98L27 99L26 98M237 98L236 102L239 98L237 98M366 98L367 99L366 98z"/>
<path style="fill:#3b3b3b; stroke:none;" d="M25 99L26 100L25 99z"/>
<path style="fill:#525252; stroke:none;" d="M246 99C242.819 105.329 242.475 110.28 250 113L251 108C247.862 105.103 247.606 103.17 248 99L246 99z"/>
<path style="fill:#3b3b3b; stroke:none;" d="M367 99L368 100L367 99z"/>
<path style="fill:#525252; stroke:none;" d="M25 100L26 101L25 100z"/>
<path style="fill:#3b3b3b; stroke:none;" d="M24 101L25 102L24 101M135.667 101.333L136.333 101.667L135.667 101.333M288 101C284.029 107.571 286.428 114.747 287 122L288 122L291 107L288 106L288 101M310 101L310 106L311 106L310 101M368 101L369 102L368 101z"/>
<path style="fill:#525252; stroke:none;" d="M24 102L25 103L24 102z"/>
<path style="fill:#3b3b3b; stroke:none;" d="M369 102L370 103L369 102z"/>
<path style="fill:#525252; stroke:none;" d="M23 103L24 104L23 103M369 103L370 104L369 103z"/>
<path style="fill:#3b3b3b; stroke:none;" d="M22 104L23 105L22 104z"/>
<path style="fill:#525252; stroke:none;" d="M235 104L236 105L235 104z"/>
<path style="fill:#3b3b3b; stroke:none;" d="M370 104L371 105L370 104z"/>
<path style="fill:#525252; stroke:none;" d="M22 105L23 106L22 105M143 105L144 106L143 105M148 105L148 106L153 106L148 105M370 105L371 106L370 105z"/>
<path style="fill:#3b3b3b; stroke:none;" d="M21 106L22 107L21 106z"/>
<path style="fill:#525252; stroke:none;" d="M318 106L319 125L320 125L323 107L318 106z"/>
<path style="fill:#3b3b3b; stroke:none;" d="M371 106L372 107L371 106z"/>
<path style="fill:#525252; stroke:none;" d="M21 107L22 108L21 107z"/>
<path style="fill:#3b3b3b; stroke:none;" d="M245 107L246 108L245 107z"/>
<path style="fill:#525252; stroke:none;" d="M371 107L372 108L371 107z"/>
<path style="fill:#3b3b3b; stroke:none;" d="M20 108L21 109L20 108M248 108L248 111L249 111L248 108z"/>
<path style="fill:#a7a7a7; stroke:none;" d="M283.333 108.667L283.667 109.333L283.333 108.667z"/>
<path style="fill:#3b3b3b; stroke:none;" d="M302 108L303 109L302 108M372 108L373 109L372 108z"/>
<path style="fill:#525252; stroke:none;" d="M20 109L21 110L20 109M372 109L373 110L372 109z"/>
<path style="fill:#3b3b3b; stroke:none;" d="M19 110L20 111L19 110z"/>
<path style="fill:#525252; stroke:none;" d="M233 110L233 113L234 113L233 110z"/>
<path style="fill:#3b3b3b; stroke:none;" d="M373 110L374 111L373 110z"/>
<path style="fill:#525252; stroke:none;" d="M19 111L20 112L19 111M240.667 111.333L241.333 111.667L240.667 111.333M373 111L374 112L373 111z"/>
<path style="fill:#3b3b3b; stroke:none;" d="M18 112L19 113L18 112z"/>
<path style="fill:#525252; stroke:none;" d="M223 112L223 133L234 129L236 126L236 125L234 119L231 123L230 123L231 116L227 122L226 122L225 112L223 112z"/>
<path style="fill:#3b3b3b; stroke:none;" d="M374 112L375 113L374 112z"/>
<path style="fill:#525252; stroke:none;" d="M18 113L19 114L18 113z"/>
<path style="fill:#a7a7a7; stroke:none;" d="M306 113L305 116L306 113z"/>
<path style="fill:#525252; stroke:none;" d="M374 113L375 114L374 113M245.333 114.667L245.667 115.333L245.333 114.667z"/>
<path style="fill:#3b3b3b; stroke:none;" d="M375 114L376 115L375 114z"/>
<path style="fill:#525252; stroke:none;" d="M17 115L18 116L17 115M375 115L376 116L375 115z"/>
<path style="fill:#3b3b3b; stroke:none;" d="M16 116L17 117L16 116z"/>
<path style="fill:#a7a7a7; stroke:none;" d="M150 116L153 122L150 116M175 134L176 120C171.375 117.272 155.126 113.856 159.863 124.895C161.951 129.763 170.248 132.807 175 134z"/>
<path style="fill:#525252; stroke:none;" d="M16.3333 117.667L16.6667 118.333L16.3333 117.667z"/>
<path style="fill:#3b3b3b; stroke:none;" d="M271 117L264 128C267.661 125.849 271.95 121.475 271 117z"/>
<path style="fill:#525252; stroke:none;" d="M376 117L377 118L376 117z"/>
<path style="fill:#a7a7a7; stroke:none;" d="M154 118L155 122L156 122L154 118z"/>
<path style="fill:#3b3b3b; stroke:none;" d="M254 118L255 119L254 118M15 119L16 120L15 119M252.333 119.667L252.667 120.333L252.333 119.667M295 119L294 123L295 119M377 119L378 120L377 119z"/>
<path style="fill:#525252; stroke:none;" d="M15 120L16 121L15 120M377 120L378 121L377 120z"/>
<path style="fill:#3b3b3b; stroke:none;" d="M14 121L15 122L14 121M110 136C120.196 139.613 119.822 132.889 127.043 127.804C130.517 125.358 134.696 124.7 137 121C125.848 122.448 114.11 124.544 110 136M261 121L262 122L261 121z"/>
<path style="fill:#a7a7a7; stroke:none;" d="M377 121L383 138L384 138L377 121z"/>
<path style="fill:#3b3b3b; stroke:none;" d="M378 121L379 122L378 121z"/>
<path style="fill:#525252; stroke:none;" d="M14 122L13 125L14 122z"/>
<path style="fill:#3b3b3b; stroke:none;" d="M149 122L153 127L149 122M280 122L281 123L280 122z"/>
<path style="fill:#525252; stroke:none;" d="M378 122L379 123L378 122z"/>
<path style="fill:#a7a7a7; stroke:none;" d="M302 123L304 125C301.821 128.742 303.681 133.411 307 136L305 123L302 123M14 124L2 165L3 165L10.3333 138L14 124z"/>
<path style="fill:#525252; stroke:none;" d="M210 124L210 126L212 126L212 124L210 124M379 124L380 125L379 124z"/>
<path style="fill:#3b3b3b; stroke:none;" d="M233 125L234 126L233 125M294 125L294 129L296 129L296 125L294 125M12 126L13 127L12 126z"/>
<path style="fill:#a7a7a7; stroke:none;" d="M156.667 126.333L157.333 126.667L156.667 126.333z"/>
<path style="fill:#3b3b3b; stroke:none;" d="M380 126L381 127L380 126z"/>
<path style="fill:#525252; stroke:none;" d="M12 127L13 128L12 127M380 127L381 128L380 127z"/>
<path style="fill:#3b3b3b; stroke:none;" d="M271 128L269 133L270 133L271 128M381 128L382 129L381 128M11 129L12 130L11 129M162 129L163 130L162 129z"/>
<path style="fill:#a7a7a7; stroke:none;" d="M178.667 129.333L179.333 129.667L178.667 129.333z"/>
<path style="fill:#525252; stroke:none;" d="M381 129L382 130L381 129M11 130L12 131L11 130z"/>
<path style="fill:#3b3b3b; stroke:none;" d="M163 130L164 131L163 130z"/>
<path style="fill:#a7a7a7; stroke:none;" d="M257 130L254 136L257 143C260.065 141.013 260.924 137.558 258 135L257 130z"/>
<path style="fill:#3b3b3b; stroke:none;" d="M296 130L294 131L294 132L296 130M10 131L11 132L10 131M382 131L383 132L382 131z"/>
<path style="fill:#525252; stroke:none;" d="M10.3333 132.667L10.6667 133.333L10.3333 132.667z"/>
<path style="fill:#3b3b3b; stroke:none;" d="M297 132L293 159L292 159L292 154L279 160C284.697 151.889 282.001 146.45 282 137L281 137C266.699 154.132 270.856 175.711 267.724 196C266.552 203.59 260.084 209.283 261 217C271.659 215.004 276.412 215.549 287 218L284 216L285 213L278 214L289 199L286 199C287.782 193.039 294.404 191.31 297.292 185.946C303.874 173.725 301.752 164.719 301.043 152C300.649 144.921 301.502 138.019 297 132z"/>
<path style="fill:#525252; stroke:none;" d="M382 132L383 133L382 132z"/>
<path style="fill:#3b3b3b; stroke:none;" d="M272 134L269 152L270 152L274 134L272 134M383 134L384 135L383 134z"/>
<path style="fill:#525252; stroke:none;" d="M9.33333 135.667L9.66667 136.333L9.33333 135.667M257 135L258 136L257 135z"/>
<path style="fill:#3b3b3b; stroke:none;" d="M275 135L276 136L275 135z"/>
<path style="fill:#525252; stroke:none;" d="M383 135L384 136L383 135z"/>
<path style="fill:#3b3b3b; stroke:none;" d="M8 137L9 138L8 137z"/>
<path style="fill:#a7a7a7; stroke:none;" d="M265 137L266 138L265 137M287 137L287 143L288 143L287 137z"/>
<path style="fill:#3b3b3b; stroke:none;" d="M384 137L385 138L384 137z"/>
<path style="fill:#525252; stroke:none;" d="M8 138L9 139L8 138M384 138L385 139L384 138M183 142L187 139L183 142z"/>
<path style="fill:#3b3b3b; stroke:none;" d="M251 139L250 143L253 139L251 139z"/>
<path style="fill:#a7a7a7; stroke:none;" d="M384 139L385 140L384 139z"/>
<path style="fill:#3b3b3b; stroke:none;" d="M385 140L386 141L385 140z"/>
<path style="fill:#525252; stroke:none;" d="M7.33333 141.667L7.66667 142.333L7.33333 141.667M385 141L386 142L385 141M131 146L127 151L127 152L139 156C137.213 149.133 146.912 147.053 150 142L131 146M195 142L191 149L195 152L202 145L197 146L197 142L195 142z"/>
<path style="fill:#a7a7a7; stroke:none;" d="M385.333 142.667L385.667 143.333L385.333 142.667z"/>
<path style="fill:#3b3b3b; stroke:none;" d="M131 151C137.409 152.198 141.625 146.743 147 144C141.619 142.87 133.779 146.355 131 151z"/>
<path style="fill:#525252; stroke:none;" d="M168 146L168 148L175 152L174 166L178 163L175 164L183 147L177 148L177 147L179 143L168 146z"/>
<path style="fill:#3b3b3b; stroke:none;" d="M6 144L7 145L6 144M386 144L387 145L386 144z"/>
<path style="fill:#525252; stroke:none;" d="M6 145L7 146L6 145z"/>
<path style="fill:#a7a7a7; stroke:none;" d="M305 145L306 152L307 152L305 145z"/>
<path style="fill:#525252; stroke:none;" d="M386 145L387 146L386 145z"/>
<path style="fill:#a7a7a7; stroke:none;" d="M386 146L387 147L386 146z"/>
<path style="fill:#3b3b3b; stroke:none;" d="M207 149L210 148L207 149M387 147L388 148L387 147z"/>
<path style="fill:#525252; stroke:none;" d="M5 148L6 149L5 148z"/>
<path style="fill:#3b3b3b; stroke:none;" d="M192 148L193 149L192 148z"/>
<path style="fill:#525252; stroke:none;" d="M387 148L388 149L387 148z"/>
<path style="fill:#ececec; stroke:none;" d="M265 149L256.606 164.505L243 176C254.044 178.262 266.234 159.045 265 149z"/>
<path style="fill:#a7a7a7; stroke:none;" d="M387.333 149.667L387.667 150.333L387.333 149.667z"/>
<path style="fill:#3b3b3b; stroke:none;" d="M267.333 151.667L267.667 152.333L267.333 151.667z"/>
<path style="fill:#525252; stroke:none;" d="M4.33333 152.667L4.66667 153.333L4.33333 152.667M388 152L389 153L388 152z"/>
<path style="fill:#3b3b3b; stroke:none;" d="M248 153L249 154L248 153z"/>
<path style="fill:#a7a7a7; stroke:none;" d="M388.333 153.667L388.667 154.333L388.333 153.667z"/>
<path style="fill:#3b3b3b; stroke:none;" d="M389 155L390 156L389 155M3 156L4 157L3 156z"/>
<path style="fill:#525252; stroke:none;" d="M389.333 156.667L389.667 157.333L389.333 156.667M3 157L4 158L3 157M178 162L178 163L194 159L193 162L196 157L178 162M299 158L297 166L298 166L299 158z"/>
<path style="fill:#a7a7a7; stroke:none;" d="M389 158L390 159L389 158z"/>
<path style="fill:#3b3b3b; stroke:none;" d="M2 161L3 162L2 161M390 161L391 162L390 161z"/>
<path style="fill:#525252; stroke:none;" d="M2 162L3 163L2 162M191 162L191 164L193 162L191 162M390 162L391 163L390 162z"/>
<path style="fill:#a7a7a7; stroke:none;" d="M390.333 163.667L390.667 164.333L390.333 163.667z"/>
<path style="fill:#525252; stroke:none;" d="M187 167L191 164L187 167M391 164L392 165L391 164M193 165L194 166L193 165z"/>
<path style="fill:#3b3b3b; stroke:none;" d="M391.333 165.667L391.667 166.333L391.333 165.667z"/>
<path style="fill:#525252; stroke:none;" d="M192 166L193 167L192 166M293 166L289 175L291 175L294 171L293 166z"/>
<path style="fill:#3b3b3b; stroke:none;" d="M1 167L2 168L1 167z"/>
<path style="fill:#ececec; stroke:none;" d="M165 167L164 171L163 171L159 168L154 173C154.252 174.331 154.451 175.707 154.772 177.025C157.774 189.349 165.305 174.214 170 174C170.135 169.851 168.769 168.541 165 167z"/>
<path style="fill:#525252; stroke:none;" d="M186 167L187 168L186 167M191 167L192 168L191 167M391 167L392 168L391 167M1 168L2 169L1 168z"/>
<path style="fill:#a7a7a7; stroke:none;" d="M2 168L1 172L2 172L2 168z"/>
<path style="fill:#525252; stroke:none;" d="M185 168L184 171L188 171L188 170L185 168M189.667 168.333L190.333 168.667L189.667 168.333z"/>
<path style="fill:#a7a7a7; stroke:none;" d="M391 168L391 171L392 171L391 168z"/>
<path style="fill:#525252; stroke:none;" d="M188 169L189 170L188 169z"/>
<path style="fill:#3b3b3b; stroke:none;" d="M305 171L291 206C296.744 203.538 300.454 191.907 302.833 186C303.87 183.427 304.481 177.537 308 180L307 171L305 171M0 172L0 175L1 175L0 172z"/>
<path style="fill:#ececec; stroke:none;" d="M211 173L214 176L211 173M186 174L186 176L188 176L188 174L186 174z"/>
<path style="fill:#525252; stroke:none;" d="M0.333333 175.667L0.666667 176.333L0.333333 175.667z"/>
<path style="fill:#a7a7a7; stroke:none;" d="M1 175L0 181L1 181L1 175z"/>
<path style="fill:#ececec; stroke:none;" d="M116 178L119 175L116 178z"/>
<path style="fill:#525252; stroke:none;" d="M392 175L393 176L392 175z"/>
<path style="fill:#ececec; stroke:none;" d="M181 176L182 177L181 176z"/>
<path style="fill:#a7a7a7; stroke:none;" d="M392 176L392 180L393 180L392 176z"/>
<path style="fill:#525252; stroke:none;" d="M393 177L393 216L394 216C394 204.828 397.311 187.274 393 177z"/>
<path style="fill:#ececec; stroke:none;" d="M212 181L213 184L212 181M122.001 182.773C114.355 184.897 116.6 191.64 123.955 189.427C129.881 187.643 127.967 181.116 122.001 182.773M153 185L156 187L156 186L153 185z"/>
<path style="fill:#525252; stroke:none;" d="M133 187L134 188L133 187M275 188L273 206C277.977 201.401 277.826 193.881 275 188M281 189L279 201C282.305 197.763 282.787 193.259 281 189z"/>
<path style="fill:#ececec; stroke:none;" d="M209 190L211 192L209 190z"/>
<path style="fill:#a7a7a7; stroke:none;" d="M0 191L1 192L0 191z"/>
<path style="fill:#525252; stroke:none;" d="M113 192L113 194L117 194L117 192L113 192M128 192C123.795 196.504 123.017 201.003 123 207C127.449 206.19 130.62 205.688 133 210C147.519 203.225 150.24 215.035 157 226C138.965 233.197 124.978 258.856 149 269.045C162.211 274.648 170.925 267.452 183 265.338C191.211 263.9 196.173 268.137 201 258C198.854 256.306 203.63 246.641 207 249C210.153 244.622 212.448 240.923 209 236L213 226L204 225L209 221L204 224L203 224L198 223L197 219L191 219L184 222L185 225L177 217L175 219L175 215L172 216L172 202L171 202L171 215L168 206L166 217L161 209L160 209L159 211L149 195C142.084 196.874 132.239 200.185 128 192z"/>
<path style="fill:#3b3b3b; stroke:none;" d="M126 198L124 205L137 204L135 199L126 198M139 201L147.541 208.302L158 221C154.954 208.357 153.893 197.647 139 201M299 202L294 209C297.141 207.488 299.751 205.718 299 202z"/>
<path style="fill:#ececec; stroke:none;" d="M136 213L143 209C139.358 209.043 135.924 208.712 136 213z"/>
<path style="fill:#a7a7a7; stroke:none;" d="M0 216L0 221L1 221L0 216z"/>
<path style="fill:#525252; stroke:none;" d="M200.333 216.667L200.667 217.333L200.333 216.667z"/>
<path style="fill:#3b3b3b; stroke:none;" d="M393 216L393 220L394 220L393 216z"/>
<path style="fill:#a7a7a7; stroke:none;" d="M392 217L392 221L393 221L392 217z"/>
<path style="fill:#010101; stroke:none;" d="M393 220C389.249 235.757 387.797 251.545 381.936 267C364.222 313.709 329.1 353.659 284 375.64C185.664 423.569 62.9828 381.256 17 281C9.01196 263.584 2.51853 244.215 1 225L0 225L0 399L394 399L394 273L394 237L393 220z"/>
<path style="fill:#525252; stroke:none;" d="M0 221L1 222L0 221z"/>
<path style="fill:#a7a7a7; stroke:none;" d="M165.333 221.667L165.667 222.333L165.333 221.667M193 221L191 225L196 225L195 221L193 221z"/>
<path style="fill:#525252; stroke:none;" d="M392 221L393 222L392 221z"/>
<path style="fill:#3b3b3b; stroke:none;" d="M0 222L0 225L1 225L0 222M292 222L290 227L291 227L294 222L292 222z"/>
<path style="fill:#a7a7a7; stroke:none;" d="M162.667 225.333L163.333 225.667L162.667 225.333M1.33333 226.667L1.66667 227.333L1.33333 226.667z"/>
<path style="fill:#525252; stroke:none;" d="M137 226L141 238C143.565 232.568 142.267 228.891 137 226z"/>
<path style="fill:#a7a7a7; stroke:none;" d="M203 226L204 227L203 226M391 226L391 229L392 229L391 226z"/>
<path style="fill:#525252; stroke:none;" d="M1 228L2 229L1 228z"/>
<path style="fill:#3b3b3b; stroke:none;" d="M1 229L2 230L1 229z"/>
<path style="fill:#a7a7a7; stroke:none;" d="M161 229L161 235L164 235L161 229z"/>
<path style="fill:#525252; stroke:none;" d="M391 229L392 230L391 229z"/>
<path style="fill:#3b3b3b; stroke:none;" d="M174 230L175 231L174 230M391 230L391 234L392 234L391 230M192 231L189 234L191 241L176 237L176 234L168 236L168 240L157 243C155.332 246.434 143.144 247.424 139 246C133.397 276.178 171.2 271.772 188 262.25C194.433 258.604 202.055 250.67 199 243L205 238L194 240L198 236L192 231z"/>
<path style="fill:#a7a7a7; stroke:none;" d="M2 232L3 239L4 239L2 232M390.333 232.667L390.667 233.333L390.333 232.667M265 233L266 237L267 237L267 233L265 233z"/>
<path style="fill:#525252; stroke:none;" d="M2 234L3 235L2 234z"/>
<path style="fill:#a7a7a7; stroke:none;" d="M149 234L151 238L151 234L149 234z"/>
<path style="fill:#525252; stroke:none;" d="M390 234L391 235L390 234z"/>
<path style="fill:#3b3b3b; stroke:none;" d="M2 235L3 236L2 235M390 235L391 236L390 235z"/>
<path style="fill:#a7a7a7; stroke:none;" d="M389 238L390 239L389 238z"/>
<path style="fill:#525252; stroke:none;" d="M3 239L4 240L3 239M389.333 239.667L389.667 240.333L389.333 239.667z"/>
<path style="fill:#3b3b3b; stroke:none;" d="M3 240L4 241L3 240z"/>
<path style="fill:#a7a7a7; stroke:none;" d="M4 240L5 245L6 245L4 240M388 241L388 244L389 244L388 241z"/>
<path style="fill:#3b3b3b; stroke:none;" d="M389 241L390 242L389 241z"/>
<path style="fill:#525252; stroke:none;" d="M184 243L184 246L186 245L186 244L184 243z"/>
<path style="fill:#a7a7a7; stroke:none;" d="M205 243L205 245L207 245L207 243L205 243z"/>
<path style="fill:#525252; stroke:none;" d="M4 244L5 245L4 244M189 246L192 244L189 246M388 244L389 245L388 244z"/>
<path style="fill:#3b3b3b; stroke:none;" d="M4 245L5 246L4 245z"/>
<path style="fill:#a7a7a7; stroke:none;" d="M5.33333 246.667L5.66667 247.333L5.33333 246.667M387.333 246.667L387.667 247.333L387.333 246.667z"/>
<path style="fill:#525252; stroke:none;" d="M5 248L6 249L5 248M387 248L388 249L387 248z"/>
<path style="fill:#3b3b3b; stroke:none;" d="M5 249L6 250L5 249z"/>
<path style="fill:#a7a7a7; stroke:none;" d="M6 249L9 260L10 260L6 249M258 249L258 253L261 249L258 249M386.333 249.667L386.667 250.333L386.333 249.667z"/>
<path style="fill:#3b3b3b; stroke:none;" d="M387 249L388 250L387 249z"/>
<path style="fill:#525252; stroke:none;" d="M386 251L387 252L386 251M6 252L7 253L6 252z"/>
<path style="fill:#3b3b3b; stroke:none;" d="M386 252L387 253L386 252z"/>
<path style="fill:#a7a7a7; stroke:none;" d="M385.333 253.667L385.667 254.333L385.333 253.667z"/>
<path style="fill:#525252; stroke:none;" d="M7 255L8 256L7 255M385 255L386 256L385 255z"/>
<path style="fill:#a7a7a7; stroke:none;" d="M384.333 256.667L384.667 257.333L384.333 256.667z"/>
<path style="fill:#3b3b3b; stroke:none;" d="M385 256L386 257L385 256z"/>
<path style="fill:#525252; stroke:none;" d="M8 258L9 259L8 258M384 258L385 259L384 258z"/>
<path style="fill:#3b3b3b; stroke:none;" d="M8 259L9 260L8 259z"/>
<path style="fill:#525252; stroke:none;" d="M311 259L312 262C287.695 262.067 268.372 276.385 246 284L246 285L282 272C288.685 264.202 301.511 262.235 311 265L311 266L288 274L288 275L320 266L311 259z"/>
<path style="fill:#3b3b3b; stroke:none;" d="M384 259L385 260L384 259z"/>
<path style="fill:#525252; stroke:none;" d="M9.33333 260.667L9.66667 261.333L9.33333 260.667z"/>
<path style="fill:#a7a7a7; stroke:none;" d="M383 260L381 266L382 266L383 260M10.3333 261.667L10.6667 262.333L10.3333 261.667z"/>
<path style="fill:#525252; stroke:none;" d="M383 261L384 262L383 261z"/>
<path style="fill:#3b3b3b; stroke:none;" d="M9 262L10 263L9 262M383 262L384 263L383 262z"/>
<path style="fill:#525252; stroke:none;" d="M10.3333 263.667L10.6667 264.333L10.3333 263.667z"/>
<path style="fill:#3b3b3b; stroke:none;" d="M282 272C274.691 271.098 266.687 276.874 260 279.551C244.203 285.875 227.627 292.69 211 296.5C200.678 298.865 184.981 301.722 189 286C182.02 289.534 173.015 303.728 184.044 308.592C189.803 311.131 200.214 306.582 206 305.127C227.027 299.837 248.139 293.286 268 284.575C282.443 278.24 295.332 269.243 311 266C304.242 260.197 286.294 264.434 282 272z"/>
<path style="fill:#a7a7a7; stroke:none;" d="M11.3333 264.667L11.6667 265.333L11.3333 264.667z"/>
<path style="fill:#525252; stroke:none;" d="M382 264L383 265L382 264z"/>
<path style="fill:#3b3b3b; stroke:none;" d="M10 265L11 266L10 265M382 265L383 266L382 265z"/>
<path style="fill:#525252; stroke:none;" d="M11 266L12 267L11 266M381.333 266.667L381.667 267.333L381.333 266.667z"/>
<path style="fill:#3b3b3b; stroke:none;" d="M11 267L12 268L11 267z"/>
<path style="fill:#a7a7a7; stroke:none;" d="M12 267L13 268L12 267M380.333 267.667L380.667 268.333L380.333 267.667z"/>
<path style="fill:#525252; stroke:none;" d="M12.3333 268.667L12.6667 269.333L12.3333 268.667z"/>
<path style="fill:#3b3b3b; stroke:none;" d="M381 268L382 269L381 268z"/>
<path style="fill:#a7a7a7; stroke:none;" d="M13 269L16 278L17 278L13 269z"/>
<path style="fill:#525252; stroke:none;" d="M380 269L381 270L380 269z"/>
<path style="fill:#3b3b3b; stroke:none;" d="M12 270L13 271L12 270z"/>
<path style="fill:#a7a7a7; stroke:none;" d="M379 270L377 276L378 276L379 270z"/>
<path style="fill:#3b3b3b; stroke:none;" d="M380 270L381 271L380 270z"/>
<path style="fill:#525252; stroke:none;" d="M13 272L14 273L13 272M379 272L380 273L379 272z"/>
<path style="fill:#3b3b3b; stroke:none;" d="M13 273L14 274L13 273z"/>
<path style="fill:#525252; stroke:none;" d="M14 274L15 275L14 274M378 274L379 275L378 274z"/>
<path style="fill:#3b3b3b; stroke:none;" d="M14 275L15 276L14 275z"/>
<path style="fill:#525252; stroke:none;" d="M285.667 275.333L286.333 275.667L285.667 275.333z"/>
<path style="fill:#3b3b3b; stroke:none;" d="M378 275L379 276L378 275z"/>
<path style="fill:#525252; stroke:none;" d="M15 276L16 277L15 276M284 276L285 277L284 276M377 276L378 277L377 276z"/>
<path style="fill:#3b3b3b; stroke:none;" d="M15 277L16 278L15 277z"/>
<path style="fill:#525252; stroke:none;" d="M283 277L284 278L283 277z"/>
<path style="fill:#a7a7a7; stroke:none;" d="M376 277L367 296L368 296L376 277z"/>
<path style="fill:#3b3b3b; stroke:none;" d="M377.333 277.667L377.667 278.333L377.333 277.667z"/>
<path style="fill:#525252; stroke:none;" d="M16.3333 278.667L16.6667 279.333L16.3333 278.667M280.667 278.333L281.333 278.667L280.667 278.333z"/>
<path style="fill:#a7a7a7; stroke:none;" d="M17 279L24 294L25 294L17 279z"/>
<path style="fill:#525252; stroke:none;" d="M277.667 279.333L278.333 279.667L277.667 279.333M376 279L377 280L376 279z"/>
<path style="fill:#3b3b3b; stroke:none;" d="M16 280L17 281L16 280z"/>
<path style="fill:#525252; stroke:none;" d="M275.667 280.333L276.333 280.667L275.667 280.333M17 281L18 282L17 281M274 281L275 282L274 281M375 281L376 282L375 281M272 282L273 283L272 282z"/>
<path style="fill:#3b3b3b; stroke:none;" d="M375 282L376 283L375 282z"/>
<path style="fill:#525252; stroke:none;" d="M18 283L19 284L18 283M270 283L271 284L270 283M374 283L375 284L374 283z"/>
<path style="fill:#3b3b3b; stroke:none;" d="M18 284L19 285L18 284z"/>
<path style="fill:#525252; stroke:none;" d="M268.667 284.333L269.333 284.667L268.667 284.333z"/>
<path style="fill:#3b3b3b; stroke:none;" d="M374 284L375 285L374 284z"/>
<path style="fill:#525252; stroke:none;" d="M19 285L20 286L19 285M187 285L187 286L190 287L187 285M243.667 285.333L244.333 285.667L243.667 285.333M265 285L265 286L268 286L265 285M373 285L374 286L373 285z"/>
<path style="fill:#3b3b3b; stroke:none;" d="M19 286L20 287L19 286z"/>
<path style="fill:#525252; stroke:none;" d="M186 286L187 287L186 286M240 286L240 287L243 287L240 286M263.667 286.333L264.333 286.667L263.667 286.333z"/>
<path style="fill:#3b3b3b; stroke:none;" d="M373 286L374 287L373 286z"/>
<path style="fill:#525252; stroke:none;" d="M20 287L21 288L20 287M185 287L186 288L185 287M188 287C187.019 304.068 203.525 298.162 215 296L215 295C202.14 296.016 194.341 300.608 188 287M236 287L236 288L240 288L236 287M261 287L262 288L261 287M372 287L373 288L372 287z"/>
<path style="fill:#3b3b3b; stroke:none;" d="M20 288L21 289L20 288z"/>
<path style="fill:#525252; stroke:none;" d="M184 288L181 293L184 288M233 288L233 289L236 289L233 288M258.667 288.333L259.333 288.667L258.667 288.333z"/>
<path style="fill:#3b3b3b; stroke:none;" d="M372 288L373 289L372 288z"/>
<path style="fill:#525252; stroke:none;" d="M21 289L22 290L21 289M230 289L230 290L233 290L230 289M256.667 289.333L257.333 289.667L256.667 289.333M371 289L372 290L371 289z"/>
<path style="fill:#3b3b3b; stroke:none;" d="M21 290L22 291L21 290z"/>
<path style="fill:#525252; stroke:none;" d="M227 290L227 291L230 291L227 290M254.667 290.333L255.333 290.667L254.667 290.333z"/>
<path style="fill:#3b3b3b; stroke:none;" d="M371 290L372 291L371 290z"/>
<path style="fill:#525252; stroke:none;" d="M22 291L23 292L22 291M224 291L224 292L227 292L224 291M251.667 291.333L252.333 291.667L251.667 291.333M370 291L371 292L370 291z"/>
<path style="fill:#3b3b3b; stroke:none;" d="M22 292L23 293L22 292z"/>
<path style="fill:#525252; stroke:none;" d="M215 294L215 295L224 293L215 294M248 292L248 293L251 293L248 292M23 293L25 297L26 297L23 293M180 293L181 294L180 293M245 293L245 294L248 294L245 293M369 293L370 294L369 293z"/>
<path style="fill:#3b3b3b; stroke:none;" d="M23 294L24 295L23 294z"/>
<path style="fill:#525252; stroke:none;" d="M179.333 294.667L179.667 295.333L179.333 294.667M243.667 294.333L244.333 294.667L243.667 294.333z"/>
<path style="fill:#3b3b3b; stroke:none;" d="M369 294L370 295L369 294z"/>
<path style="fill:#a7a7a7; stroke:none;" d="M25 295L26 296L25 295z"/>
<path style="fill:#525252; stroke:none;" d="M238 295L238 296L242 296L238 295M368 295L369 296L368 295z"/>
<path style="fill:#a7a7a7; stroke:none;" d="M26 296L33 310L34 310L26 296z"/>
<path style="fill:#525252; stroke:none;" d="M235 296L235 297L238 297L235 296M367 296L368 297L367 296z"/>
<path style="fill:#3b3b3b; stroke:none;" d="M25 297L26 298L25 297z"/>
<path style="fill:#525252; stroke:none;" d="M178 297L178 303L179 303L178 297M232.667 297.333L233.333 297.667L232.667 297.333z"/>
<path style="fill:#a7a7a7; stroke:none;" d="M366 297L364 301L365 301L366 297z"/>
<path style="fill:#3b3b3b; stroke:none;" d="M367 297L368 298L367 297z"/>
<path style="fill:#525252; stroke:none;" d="M26 298L27 299L26 298M227 298L227 299L231 299L227 298M366 298L367 299L366 298z"/>
<path style="fill:#3b3b3b; stroke:none;" d="M26 299L27 300L26 299z"/>
<path style="fill:#525252; stroke:none;" d="M224 299L224 300L227 300L224 299z"/>
<path style="fill:#3b3b3b; stroke:none;" d="M366 299L367 300L366 299z"/>
<path style="fill:#525252; stroke:none;" d="M27 300L28 301L27 300M221.667 300.333L222.333 300.667L221.667 300.333M365 300L366 301L365 300M28.3333 301.667L28.6667 302.333L28.3333 301.667M217 301L217 302L220 302L217 301M364 301L365 302L364 301M214 302L214 303L217 303L214 302z"/>
<path style="fill:#a7a7a7; stroke:none;" d="M363 302L327 346C338.242 338.081 347.81 326.067 355.848 315C358.535 311.3 362.847 306.673 363 302z"/>
<path style="fill:#3b3b3b; stroke:none;" d="M364 302L365 303L364 302z"/>
<path style="fill:#525252; stroke:none;" d="M29 303L30 304L29 303M212.667 303.333L213.333 303.667L212.667 303.333M363 303L364 304L363 303z"/>
<path style="fill:#3b3b3b; stroke:none;" d="M29 304L30 305L29 304z"/>
<path style="fill:#525252; stroke:none;" d="M179.333 304.667L179.667 305.333L179.333 304.667M208.667 304.333L209.333 304.667L208.667 304.333z"/>
<path style="fill:#3b3b3b; stroke:none;" d="M363 304L364 305L363 304z"/>
<path style="fill:#525252; stroke:none;" d="M30 305L31 306L30 305M204 305L204 306L207 306L204 305M362 305L363 306L362 305M180 306L183 309L180 306M200 306L200 307L204 307L200 306M361 306L362 307L361 306z"/>
<path style="fill:#3b3b3b; stroke:none;" d="M31 307L32 308L31 307z"/>
<path style="fill:#525252; stroke:none;" d="M196 307L196 308L199 308L196 307z"/>
<path style="fill:#3b3b3b; stroke:none;" d="M361 307L362 308L361 307z"/>
<path style="fill:#525252; stroke:none;" d="M32 308L33 309L32 308M191 308L191 309L196 309L191 308M360 308L361 309L360 308M183 309L183 310L186 310L183 309M187 309L187 310L191 310L187 309M359 309L360 310L359 309z"/>
<path style="fill:#a7a7a7; stroke:none;" d="M34 310C41.5807 323.6 54.2851 338.043 67 347L34 310z"/>
<path style="fill:#3b3b3b; stroke:none;" d="M359 310L360 311L359 310z"/>
<path style="fill:#525252; stroke:none;" d="M34 311L35 312L34 311M358 311L359 312L358 311M35 312L36 313L35 312M357 312L358 313L357 312z"/>
<path style="fill:#3b3b3b; stroke:none;" d="M36 314L37 315L36 314M356 314L357 315L356 314z"/>
<path style="fill:#525252; stroke:none;" d="M37 315L38 316L37 315M355 315L356 316L355 315M354 316L355 317L354 316z"/>
<path style="fill:#3b3b3b; stroke:none;" d="M38 317L39 318L38 317z"/>
<path style="fill:#525252; stroke:none;" d="M39 318L40 319L39 318M353 318L354 319L353 318M40 319L41 320L40 319M352 319L353 320L352 319M41 320L42 321L41 320M351 320L352 321L351 320z"/>
<path style="fill:#3b3b3b; stroke:none;" d="M351 321L352 322L351 321M42 322L43 323L42 322M350 322L351 323L350 322z"/>
<path style="fill:#525252; stroke:none;" d="M43 323L44 324L43 323M349 323L350 324L349 323M44 324L45 325L44 324M348 324L349 325L348 324M45 325L46 326L45 325M347 325L346 327L347 325z"/>
<path style="fill:#3b3b3b; stroke:none;" d="M347 326L348 327L347 326M46 327L47 328L46 327z"/>
<path style="fill:#525252; stroke:none;" d="M345 327L346 328L345 327z"/>
<path style="fill:#3b3b3b; stroke:none;" d="M47 328L48 329L47 328M345 328L346 329L345 328M48 329L49 330L48 329M344 329L345 330L344 329M49 330L50 331L49 330z"/>
<path style="fill:#525252; stroke:none;" d="M343 330L344 331L343 330M50 331L51 332L50 331z"/>
<path style="fill:#3b3b3b; stroke:none;" d="M342 331L343 332L342 331M51 332L52 333L51 332M341 332L342 333L341 332M52 333L53 334L52 333M340 333L341 334L340 333z"/>
<path style="fill:#525252; stroke:none;" d="M53 334L54 335L53 334M339 334L340 335L339 334M54 335L55 336L54 335z"/>
<path style="fill:#a7a7a7; stroke:none;" d="M263 335L262 337L263 335z"/>
<path style="fill:#525252; stroke:none;" d="M338 335L339 336L338 335M55 336L56 337L55 336M337 336L338 337L337 336M56 337L57 338L56 337M336 337L337 338L336 337M57 338L58 339L57 338z"/>
<path style="fill:#a7a7a7; stroke:none;" d="M259.333 338.667L259.667 339.333L259.333 338.667z"/>
<path style="fill:#525252; stroke:none;" d="M335 338L336 339L335 338M58 339L59 340L58 339M334 339L335 340L334 339M59 340L60 341L59 340z"/>
<path style="fill:#a7a7a7; stroke:none;" d="M257 340L259 342L257 340z"/>
<path style="fill:#525252; stroke:none;" d="M333 340L334 341L333 340M60 341L61 342L60 341M332 341L333 342L332 341M61 342L62 343L61 342z"/>
<path style="fill:#3b3b3b; stroke:none;" d="M331 342L332 343L331 342M62 343L63 344L62 343M330 343L331 344L330 343z"/>
<path style="fill:#525252; stroke:none;" d="M63 344L64 345L63 344M329 344L330 345L329 344M64 345L65 346L64 345z"/>
<path style="fill:#3b3b3b; stroke:none;" d="M328 345L329 346L328 345M65 346L66 347L65 346z"/>
<path style="fill:#a7a7a7; stroke:none;" d="M325 346C309.868 359.928 292.468 367.804 275 378L290 358L293 359L294 354L267.675 379.79L251 387L261 369L251 379L252 382L251 384L228 392L228 393C254.842 389.59 281.268 378.343 304 363.947C310.321 359.944 323.133 353.672 325 346z"/>
<path style="fill:#525252; stroke:none;" d="M326 346L324 349L326 346z"/>
<path style="fill:#3b3b3b; stroke:none;" d="M327 346L328 347L327 346z"/>
<path style="fill:#a7a7a7; stroke:none;" d="M67 347L67 348L74 353L67 347M281 347L282 348L281 347z"/>
<path style="fill:#3b3b3b; stroke:none;" d="M326 347L327 348L326 347M67 348L68 349L67 348M325 348L326 349L325 348z"/>
<path style="fill:#525252; stroke:none;" d="M69 349L70 350L69 349M323 349L324 350L323 349M70 350L71 351L70 350M322 350L323 351L322 350z"/>
<path style="fill:#3b3b3b; stroke:none;" d="M71 351L72 352L71 351M321 351L322 352L321 351M72 352L73 353L72 352M320 352L321 353L320 352z"/>
<path style="fill:#525252; stroke:none;" d="M74 353L77 356L74 353z"/>
<path style="fill:#a7a7a7; stroke:none;" d="M75 353L76 354L75 353z"/>
<path style="fill:#525252; stroke:none;" d="M318 353L319 354L318 353z"/>
<path style="fill:#3b3b3b; stroke:none;" d="M74 354L75 355L74 354z"/>
<path style="fill:#a7a7a7; stroke:none;" d="M76 354L77 355L76 354z"/>
<path style="fill:#525252; stroke:none;" d="M317 354L318 355L317 354z"/>
<path style="fill:#a7a7a7; stroke:none;" d="M77 355L79 357L77 355M271 355L269 359L273 355L271 355z"/>
<path style="fill:#3b3b3b; stroke:none;" d="M316 355L317 356L316 355M77 356L78 357L77 356M315 356L316 357L315 356z"/>
<path style="fill:#525252; stroke:none;" d="M79 357L81 359L79 357z"/>
<path style="fill:#a7a7a7; stroke:none;" d="M80 357L81 358L80 357z"/>
<path style="fill:#525252; stroke:none;" d="M313 357L314 358L313 357z"/>
<path style="fill:#a7a7a7; stroke:none;" d="M81 358L82 359L81 358z"/>
<path style="fill:#525252; stroke:none;" d="M312 358L313 359L312 358z"/>
<path style="fill:#a7a7a7; stroke:none;" d="M82 359L82 360L91 365L91 364L82 359z"/>
<path style="fill:#525252; stroke:none;" d="M310 359L311 360L310 359M83 360L84 361L83 360z"/>
<path style="fill:#a7a7a7; stroke:none;" d="M278 360L279 361L278 360z"/>
<path style="fill:#525252; stroke:none;" d="M309 360L310 361L309 360z"/>
<path style="fill:#3b3b3b; stroke:none;" d="M84 361L85 362L84 361z"/>
<path style="fill:#a7a7a7; stroke:none;" d="M261 369L268 361L261 369z"/>
<path style="fill:#525252; stroke:none;" d="M307 361L308 362L307 361z"/>
<path style="fill:#3b3b3b; stroke:none;" d="M308 361L309 362L308 361M85 362L86 363L85 362z"/>
<path style="fill:#525252; stroke:none;" d="M86 362L87 363L86 362M306 362L307 363L306 362z"/>
<path style="fill:#3b3b3b; stroke:none;" d="M87 363L88 364L87 363z"/>
<path style="fill:#525252; stroke:none;" d="M304 363L305 364L304 363z"/>
<path style="fill:#3b3b3b; stroke:none;" d="M305 363L306 364L305 363M88 364L89 365L88 364z"/>
<path style="fill:#525252; stroke:none;" d="M89 364L90 365L89 364M303 364L304 365L303 364M91 365L93 367L91 365z"/>
<path style="fill:#a7a7a7; stroke:none;" d="M92 365L93 366L92 365z"/>
<path style="fill:#525252; stroke:none;" d="M301 365L302 366L301 365z"/>
<path style="fill:#a7a7a7; stroke:none;" d="M93 366L93 367L98 369L98 368L93 366z"/>
<path style="fill:#525252; stroke:none;" d="M299 366L300 367L299 366z"/>
<path style="fill:#3b3b3b; stroke:none;" d="M300 366L301 367L300 366z"/>
<path style="fill:#525252; stroke:none;" d="M94 367L95 368L94 367z"/>
<path style="fill:#a7a7a7; stroke:none;" d="M268.667 367.333L269.333 367.667L268.667 367.333z"/>
<path style="fill:#525252; stroke:none;" d="M298 367L299 368L298 367z"/>
<path style="fill:#3b3b3b; stroke:none;" d="M95 368L96 369L95 368z"/>
<path style="fill:#525252; stroke:none;" d="M96 368L97 369L96 368M296 368L297 369L296 368z"/>
<path style="fill:#3b3b3b; stroke:none;" d="M297 368L298 369L297 368M97 369L98 370L97 369z"/>
<path style="fill:#525252; stroke:none;" d="M98 369L100 371L98 369z"/>
<path style="fill:#a7a7a7; stroke:none;" d="M99 369L100 370L99 369M271 369L272 370L271 369z"/>
<path style="fill:#525252; stroke:none;" d="M294 369L295 370L294 369z"/>
<path style="fill:#3b3b3b; stroke:none;" d="M295 369L296 370L295 369z"/>
<path style="fill:#a7a7a7; stroke:none;" d="M100 370L100 371L118 379L118 378L100 370z"/>
<path style="fill:#525252; stroke:none;" d="M292 370L293 371L292 370z"/>
<path style="fill:#3b3b3b; stroke:none;" d="M293 370L294 371L293 370z"/>
<path style="fill:#525252; stroke:none;" d="M101 371L102 372L101 371M291 371L292 372L291 371z"/>
<path style="fill:#3b3b3b; stroke:none;" d="M102 372L103 373L102 372z"/>
<path style="fill:#525252; stroke:none;" d="M103 372L104 373L103 372M289 372L290 373L289 372z"/>
<path style="fill:#3b3b3b; stroke:none;" d="M290 372L291 373L290 372z"/>
<path style="fill:#525252; stroke:none;" d="M105 373L106 374L105 373M287 373L288 374L287 373z"/>
<path style="fill:#3b3b3b; stroke:none;" d="M106 374L107 375L106 374z"/>
<path style="fill:#525252; stroke:none;" d="M107 374L108 375L107 374M285 374L286 375L285 374z"/>
<path style="fill:#3b3b3b; stroke:none;" d="M286 374L287 375L286 374M108 375L109 376L108 375z"/>
<path style="fill:#525252; stroke:none;" d="M109 375L110 376L109 375M283 375L284 376L283 375z"/>
<path style="fill:#3b3b3b; stroke:none;" d="M284 375L285 376L284 375M110 376L111 377L110 376z"/>
<path style="fill:#525252; stroke:none;" d="M111 376L112 377L111 376M281 376L282 377L281 376z"/>
<path style="fill:#3b3b3b; stroke:none;" d="M282 376L283 377L282 376M112 377L113 378L112 377z"/>
<path style="fill:#525252; stroke:none;" d="M113 377L114 378L113 377z"/>
<path style="fill:#a7a7a7; stroke:none;" d="M262.667 377.333L263.333 377.667L262.667 377.333z"/>
<path style="fill:#525252; stroke:none;" d="M278.667 377.333L279.333 377.667L278.667 377.333z"/>
<path style="fill:#3b3b3b; stroke:none;" d="M115 378L116 379L115 378z"/>
<path style="fill:#525252; stroke:none;" d="M276.667 378.333L277.333 378.667L276.667 378.333z"/>
<path style="fill:#3b3b3b; stroke:none;" d="M117 379L118 380L117 379z"/>
<path style="fill:#525252; stroke:none;" d="M118 379L119 380L118 379z"/>
<path style="fill:#a7a7a7; stroke:none;" d="M119 379L119 380L165 393L165 392L119 379z"/>
<path style="fill:#525252; stroke:none;" d="M274 379L275 380L274 379z"/>
<path style="fill:#3b3b3b; stroke:none;" d="M275 379L276 380L275 379M119 380L120 381L119 380z"/>
<path style="fill:#525252; stroke:none;" d="M120 380L121 381L120 380M271.667 380.333L272.333 380.667L271.667 380.333z"/>
<path style="fill:#3b3b3b; stroke:none;" d="M273 380L274 381L273 380M122 381L123 382L122 381z"/>
<path style="fill:#525252; stroke:none;" d="M123 381L124 382L123 381M269 381L270 382L269 381z"/>
<path style="fill:#3b3b3b; stroke:none;" d="M270 381L271 382L270 381M124 382L125 383L124 382z"/>
<path style="fill:#525252; stroke:none;" d="M125 382L126 383L125 382M267 382L268 383L267 382z"/>
<path style="fill:#3b3b3b; stroke:none;" d="M268 382L269 383L268 382M127 383L128 384L127 383z"/>
<path style="fill:#525252; stroke:none;" d="M128 383L129 384L128 383M264 383L265 384L264 383z"/>
<path style="fill:#3b3b3b; stroke:none;" d="M265 383L266 384L265 383M130 384L131 385L130 384z"/>
<path style="fill:#525252; stroke:none;" d="M131 384L132 385L131 384M261.667 384.333L262.333 384.667L261.667 384.333z"/>
<path style="fill:#3b3b3b; stroke:none;" d="M132 385L133 386L132 385z"/>
<path style="fill:#525252; stroke:none;" d="M133 385L134 386L133 385M259 385L260 386L259 385z"/>
<path style="fill:#3b3b3b; stroke:none;" d="M260 385L261 386L260 385M135 386L136 387L135 386z"/>
<path style="fill:#525252; stroke:none;" d="M136 386L137 387L136 386M256 386L257 387L256 386z"/>
<path style="fill:#3b3b3b; stroke:none;" d="M257.667 386.333L258.333 386.667L257.667 386.333M138 387L139 388L138 387z"/>
<path style="fill:#525252; stroke:none;" d="M139 387L140 388L139 387M253 387L254 388L253 387z"/>
<path style="fill:#3b3b3b; stroke:none;" d="M142 388L143 389L142 388z"/>
<path style="fill:#525252; stroke:none;" d="M143 388L144 389L143 388M249 388L250 389L249 388z"/>
<path style="fill:#3b3b3b; stroke:none;" d="M250 388L251 389L250 388M146 389L147 390L146 389z"/>
<path style="fill:#525252; stroke:none;" d="M147 389L148 390L147 389M245 389L246 390L245 389z"/>
<path style="fill:#3b3b3b; stroke:none;" d="M246 389L247 390L246 389M149.667 390.333L150.333 390.667L149.667 390.333z"/>
<path style="fill:#525252; stroke:none;" d="M151 390L152 391L151 390M241 390L242 391L241 390z"/>
<path style="fill:#3b3b3b; stroke:none;" d="M242 390L243 391L242 390M154 391L155 392L154 391z"/>
<path style="fill:#525252; stroke:none;" d="M155 391L156 392L155 391M237 391L238 392L237 391z"/>
<path style="fill:#3b3b3b; stroke:none;" d="M238 391L239 392L238 391M159 392L160 393L159 392z"/>
<path style="fill:#525252; stroke:none;" d="M160.667 392.333L161.333 392.667L160.667 392.333z"/>
<path style="fill:#a7a7a7; stroke:none;" d="M166 392L166 393L171 394L166 392M213 394L213 395L227 393L213 394z"/>
<path style="fill:#525252; stroke:none;" d="M231.667 392.333L232.333 392.667L231.667 392.333z"/>
<path style="fill:#3b3b3b; stroke:none;" d="M233.667 392.333L234.333 392.667L233.667 392.333M165 393L166 394L165 393z"/>
<path style="fill:#525252; stroke:none;" d="M166 393L167 394L166 393z"/>
<path style="fill:#a7a7a7; stroke:none;" d="M173 393L173 394L179 395L173 393z"/>
<path style="fill:#525252; stroke:none;" d="M226 393L227 394L226 393M168 394L169 395L168 394M170.667 394.333L171.333 394.667L170.667 394.333z"/>
<path style="fill:#3b3b3b; stroke:none;" d="M172 394L173 395L172 394z"/>
<path style="fill:#525252; stroke:none;" d="M173.667 394.333L174.333 394.667L173.667 394.333z"/>
<path style="fill:#a7a7a7; stroke:none;" d="M192 394L192 395L202 395L192 394M209 394L210 395L209 394z"/>
<path style="fill:#525252; stroke:none;" d="M218.667 394.333L219.333 394.667L218.667 394.333z"/>
<path style="fill:#3b3b3b; stroke:none;" d="M220 394L220 395L223 395L220 394M224 394L225 395L224 394M189 395L189 396L201 396L189 395M202 395L202 396L206 396L202 395z"/>
</svg>
